<svg width="200" height="40" viewBox="0 0 200 40" fill="none" xmlns="http://www.w3.org/2000/svg">
<path d="M47.7415 18.325V15.1949H50.4628C50.722 15.1949 50.9688 15.2199 51.2033 15.2699C51.4502 15.3074 51.6662 15.3823 51.8513 15.4948C52.0364 15.6073 52.1845 15.7634 52.2956 15.9634C52.4067 16.1633 52.4622 16.4195 52.4622 16.7319C52.4622 17.2942 52.2956 17.7003 51.9624 17.9502C51.6291 18.2001 51.2033 18.325 50.685 18.325H47.7415ZM44.835 12.9082V26.291H51.2404C51.8328 26.291 52.4067 26.216 52.962 26.0661C53.5298 25.9161 54.0296 25.6849 54.4616 25.3726C54.9059 25.0602 55.2576 24.6603 55.5168 24.173C55.776 23.6732 55.9056 23.0859 55.9056 22.4111C55.9056 21.5739 55.7019 20.8616 55.2946 20.2744C54.8997 19.6746 54.295 19.256 53.4804 19.0185C54.0728 18.7311 54.5171 18.3625 54.8133 17.9127C55.1219 17.4628 55.2761 16.9005 55.2761 16.2258C55.2761 15.601 55.1712 15.0762 54.9614 14.6513C54.7639 14.2265 54.4801 13.8891 54.1098 13.6392C53.7396 13.3768 53.2953 13.1894 52.7769 13.0769C52.2586 12.9644 51.6847 12.9082 51.0552 12.9082H44.835ZM47.7415 24.0043V20.3306H50.9071C51.5366 20.3306 52.0426 20.4805 52.4252 20.7804C52.8078 21.0678 52.9991 21.5552 52.9991 22.2424C52.9991 22.5923 52.9374 22.8797 52.8139 23.1046C52.7029 23.3295 52.5486 23.5107 52.3511 23.6482C52.1537 23.7731 51.9253 23.8668 51.6662 23.9293C51.407 23.9793 51.1355 24.0043 50.8516 24.0043H47.7415Z" fill="#24262D"/>
<path d="M58.925 12.9082V15.1012H61.4242V12.9082H58.925ZM62.7386 12.9082V15.1012H65.2379V12.9082H62.7386ZM66.5708 26.291V16.6006H63.942V21.6801C63.942 22.6673 63.7815 23.3795 63.4606 23.8169C63.1397 24.2417 62.6214 24.4541 61.9056 24.4541C61.2761 24.4541 60.838 24.2604 60.5912 23.8731C60.3443 23.4732 60.2209 22.8734 60.2209 22.0737V16.6006H57.5921V22.561C57.5921 23.1608 57.6415 23.7106 57.7402 24.2105C57.8513 24.6978 58.0364 25.1164 58.2956 25.4663C58.5548 25.8037 58.9065 26.0661 59.3508 26.2535C59.8075 26.4409 60.3875 26.5346 61.091 26.5346C61.6464 26.5346 62.1894 26.4097 62.7201 26.1598C63.2508 25.9099 63.6828 25.5038 64.016 24.9415H64.0716V26.291H66.5708Z" fill="#24262D"/>
<path d="M75.0824 20.0119H77.6557C77.6187 19.3872 77.4706 18.8499 77.2114 18.4C76.9522 17.9377 76.6128 17.5566 76.1932 17.2567C75.7859 16.9443 75.3169 16.7131 74.7862 16.5632C74.2679 16.4132 73.7248 16.3382 73.1571 16.3382C72.3796 16.3382 71.6884 16.4694 71.0837 16.7319C70.4789 16.9943 69.9667 17.3629 69.5471 17.8377C69.1275 18.3 68.8066 18.8561 68.5845 19.5059C68.3747 20.1431 68.2697 20.8367 68.2697 21.5864C68.2697 22.3111 68.387 22.9796 68.6215 23.5919C68.856 24.1917 69.183 24.7103 69.6027 25.1476C70.0223 25.585 70.5283 25.9286 71.1207 26.1785C71.7255 26.4159 72.3857 26.5346 73.1016 26.5346C74.3728 26.5346 75.4157 26.1973 76.2302 25.5225C77.0448 24.8477 77.5384 23.8668 77.7112 22.5798H75.175C75.0886 23.1796 74.8726 23.6607 74.527 24.023C74.1938 24.3729 73.7125 24.5478 73.0831 24.5478C72.6758 24.5478 72.3302 24.4541 72.0463 24.2667C71.7625 24.0793 71.5342 23.8418 71.3614 23.5544C71.2009 23.2546 71.0837 22.9234 71.0096 22.561C70.9356 22.1987 70.8986 21.8425 70.8986 21.4927C70.8986 21.1303 70.9356 20.7679 71.0096 20.4056C71.0837 20.0307 71.2071 19.6933 71.3799 19.3934C71.565 19.081 71.7995 18.8311 72.0834 18.6437C72.3672 18.4437 72.719 18.3438 73.1386 18.3438C74.2617 18.3438 74.9096 18.8998 75.0824 20.0119Z" fill="#24262D"/>
<path d="M79.1963 12.9082V26.291H81.8251V21.2115C81.8251 20.2244 81.9855 19.5184 82.3064 19.0935C82.6273 18.6562 83.1457 18.4375 83.8615 18.4375C84.4909 18.4375 84.9291 18.6374 85.1759 19.0373C85.4227 19.4247 85.5462 20.0182 85.5462 20.8179V26.291H88.175V20.3306C88.175 19.7308 88.1194 19.1872 88.0084 18.6999C87.9096 18.2001 87.7307 17.7815 87.4715 17.4441C87.2123 17.0942 86.8544 16.8256 86.3977 16.6381C85.9534 16.4382 85.3795 16.3382 84.6761 16.3382C84.1824 16.3382 83.6764 16.4694 83.158 16.7319C82.6397 16.9818 82.2139 17.3879 81.8806 17.9502H81.8251V12.9082H79.1963Z" fill="#24262D"/>
<path d="M96.6126 20.4056H92.3361C92.3485 20.2181 92.3855 20.0057 92.4472 19.7683C92.5213 19.5309 92.6385 19.3059 92.799 19.0935C92.9717 18.8811 93.1939 18.7062 93.4654 18.5687C93.7493 18.4188 94.101 18.3438 94.5206 18.3438C95.1624 18.3438 95.6376 18.5187 95.9461 18.8686C96.267 19.2185 96.4892 19.7308 96.6126 20.4056ZM92.3361 22.0925H99.2414C99.2908 21.3427 99.229 20.6242 99.0563 19.937C98.8835 19.2497 98.5996 18.6374 98.2047 18.1001C97.8221 17.5628 97.3284 17.138 96.7237 16.8256C96.1189 16.5007 95.4092 16.3382 94.5947 16.3382C93.8665 16.3382 93.2001 16.4694 92.5953 16.7319C92.0029 16.9943 91.4907 17.3566 91.0588 17.819C90.6268 18.2688 90.2936 18.8061 90.0591 19.4309C89.8246 20.0557 89.7073 20.7304 89.7073 21.4552C89.7073 22.2049 89.8184 22.8922 90.0406 23.517C90.2751 24.1417 90.6021 24.679 91.0217 25.1289C91.4414 25.5787 91.9535 25.9286 92.5583 26.1785C93.163 26.4159 93.8418 26.5346 94.5947 26.5346C95.6808 26.5346 96.6064 26.2847 97.3716 25.7849C98.1368 25.2851 98.7045 24.4541 99.0748 23.292H96.7607C96.6743 23.5919 96.4398 23.8793 96.0572 24.1542C95.6746 24.4166 95.2179 24.5478 94.6873 24.5478C93.9467 24.5478 93.379 24.3542 92.9841 23.9668C92.5891 23.5794 92.3732 22.9547 92.3361 22.0925Z" fill="#24262D"/>
<path d="M100.8 16.6006V26.291H103.429V21.9238C103.429 21.4864 103.473 21.0803 103.559 20.7055C103.645 20.3306 103.787 20.0057 103.985 19.7308C104.194 19.4434 104.466 19.2185 104.799 19.056C105.132 18.8936 105.54 18.8124 106.021 18.8124C106.182 18.8124 106.348 18.8249 106.521 18.8499C106.694 18.8624 106.842 18.8811 106.965 18.9061V16.432C106.755 16.3695 106.564 16.3382 106.391 16.3382C106.058 16.3382 105.737 16.3882 105.429 16.4882C105.12 16.5882 104.83 16.7319 104.559 16.9193C104.287 17.0942 104.046 17.3129 103.837 17.5753C103.627 17.8252 103.46 18.1001 103.337 18.4H103.3V16.6006H100.8Z" fill="#24262D"/>
<path d="M107.996 16.6006V26.291H110.625V21.9238C110.625 21.4864 110.668 21.0803 110.754 20.7055C110.841 20.3306 110.983 20.0057 111.18 19.7308C111.39 19.4434 111.661 19.2185 111.995 19.056C112.328 18.8936 112.735 18.8124 113.216 18.8124C113.377 18.8124 113.544 18.8249 113.716 18.8499C113.889 18.8624 114.037 18.8811 114.161 18.9061V16.432C113.951 16.3695 113.759 16.3382 113.587 16.3382C113.253 16.3382 112.933 16.3882 112.624 16.4882C112.316 16.5882 112.025 16.7319 111.754 16.9193C111.482 17.0942 111.242 17.3129 111.032 17.5753C110.822 17.8252 110.656 18.1001 110.532 18.4H110.495V16.6006H107.996Z" fill="#24262D"/>
<path d="M121.308 20.4056H117.032C117.044 20.2181 117.081 20.0057 117.143 19.7683C117.217 19.5309 117.334 19.3059 117.495 19.0935C117.667 18.8811 117.89 18.7062 118.161 18.5687C118.445 18.4188 118.797 18.3438 119.216 18.3438C119.858 18.3438 120.333 18.5187 120.642 18.8686C120.963 19.2185 121.185 19.7308 121.308 20.4056ZM117.032 22.0925H123.937C123.986 21.3427 123.925 20.6242 123.752 19.937C123.579 19.2497 123.295 18.6374 122.9 18.1001C122.518 17.5628 122.024 17.138 121.419 16.8256C120.815 16.5007 120.105 16.3382 119.29 16.3382C118.562 16.3382 117.896 16.4694 117.291 16.7319C116.699 16.9943 116.186 17.3566 115.754 17.819C115.322 18.2688 114.989 18.8061 114.755 19.4309C114.52 20.0557 114.403 20.7304 114.403 21.4552C114.403 22.2049 114.514 22.8922 114.736 23.517C114.971 24.1417 115.298 24.679 115.717 25.1289C116.137 25.5787 116.649 25.9286 117.254 26.1785C117.859 26.4159 118.538 26.5346 119.29 26.5346C120.376 26.5346 121.302 26.2847 122.067 25.7849C122.832 25.2851 123.4 24.4541 123.77 23.292H121.456C121.37 23.5919 121.135 23.8793 120.753 24.1542C120.37 24.4166 119.914 24.5478 119.383 24.5478C118.642 24.5478 118.075 24.3542 117.68 23.9668C117.285 23.5794 117.069 22.9547 117.032 22.0925Z" fill="#24262D"/>
<path d="M129.958 24.0043C129.55 24.0043 129.211 23.9168 128.94 23.7419C128.668 23.5669 128.446 23.342 128.273 23.0671C128.113 22.7922 127.995 22.4861 127.921 22.1487C127.86 21.7988 127.829 21.4489 127.829 21.0991C127.829 20.7367 127.866 20.3931 127.94 20.0682C128.026 19.7308 128.156 19.4371 128.329 19.1872C128.514 18.9248 128.736 18.7187 128.995 18.5687C129.267 18.4188 129.587 18.3438 129.958 18.3438C130.39 18.3438 130.748 18.425 131.031 18.5874C131.315 18.7499 131.544 18.9686 131.716 19.2435C131.889 19.5184 132.013 19.837 132.087 20.1994C132.161 20.5493 132.198 20.9241 132.198 21.324C132.198 21.6739 132.148 22.0112 132.05 22.3361C131.963 22.6485 131.828 22.9297 131.642 23.1796C131.457 23.4295 131.223 23.6294 130.939 23.7794C130.655 23.9293 130.328 24.0043 129.958 24.0043ZM134.697 25.6724V16.6006H132.198V17.8939H132.161C131.84 17.3316 131.439 16.9318 130.957 16.6944C130.488 16.457 129.939 16.3382 129.31 16.3382C128.643 16.3382 128.051 16.4694 127.533 16.7319C127.027 16.9943 126.601 17.3504 126.255 17.8002C125.91 18.2376 125.644 18.7499 125.459 19.3372C125.286 19.912 125.2 20.5118 125.2 21.1365C125.2 21.7988 125.274 22.4298 125.422 23.0296C125.583 23.6169 125.829 24.1355 126.163 24.5853C126.496 25.0227 126.922 25.3726 127.44 25.635C127.958 25.8849 128.575 26.0098 129.291 26.0098C129.871 26.0098 130.421 25.8911 130.939 25.6537C131.47 25.4038 131.877 25.0227 132.161 24.5104H132.198V25.7849C132.21 26.4722 132.044 27.0407 131.698 27.4906C131.365 27.9404 130.828 28.1653 130.087 28.1653C129.618 28.1653 129.205 28.0654 128.847 27.8654C128.489 27.678 128.248 27.3344 128.125 26.8345H125.515C125.552 27.3843 125.7 27.8529 125.959 28.2403C126.231 28.6401 126.564 28.965 126.959 29.2149C127.366 29.4649 127.81 29.646 128.292 29.7585C128.785 29.8835 129.267 29.9459 129.736 29.9459C130.834 29.9459 131.71 29.796 132.364 29.4961C133.019 29.1962 133.518 28.8276 133.864 28.3902C134.209 27.9654 134.432 27.5031 134.53 27.0032C134.641 26.5034 134.697 26.0598 134.697 25.6724Z" fill="#24262D"/>
<path d="M139.516 15.1012V12.9082H136.888V15.1012H139.516ZM136.888 16.6006V26.291H139.516V16.6006H136.888Z" fill="#24262D"/>
<path d="M143.623 23.1421H141.124C141.148 23.7919 141.29 24.3354 141.549 24.7728C141.821 25.1976 142.16 25.5412 142.568 25.8036C142.987 26.0661 143.462 26.2535 143.993 26.366C144.524 26.4784 145.067 26.5346 145.622 26.5346C146.165 26.5346 146.696 26.4784 147.214 26.366C147.745 26.266 148.214 26.0848 148.621 25.8224C149.028 25.56 149.356 25.2164 149.602 24.7915C149.862 24.3542 149.991 23.8169 149.991 23.1796C149.991 22.7297 149.905 22.3549 149.732 22.055C149.559 21.7426 149.331 21.4864 149.047 21.2865C148.763 21.0741 148.436 20.9054 148.066 20.7804C147.708 20.6555 147.338 20.5493 146.955 20.4618C146.585 20.3743 146.221 20.2931 145.863 20.2181C145.505 20.1431 145.184 20.0619 144.9 19.9745C144.629 19.8745 144.406 19.7495 144.234 19.5996C144.061 19.4496 143.974 19.256 143.974 19.0185C143.974 18.8186 144.024 18.6624 144.123 18.55C144.221 18.425 144.339 18.3313 144.474 18.2688C144.622 18.2063 144.783 18.1688 144.956 18.1564C145.128 18.1314 145.289 18.1189 145.437 18.1189C145.906 18.1189 146.313 18.2126 146.659 18.4C147.004 18.575 147.196 18.9186 147.233 19.4309H149.732C149.683 18.8311 149.528 18.3375 149.269 17.9502C149.022 17.5503 148.708 17.2317 148.325 16.9943C147.942 16.7568 147.504 16.5882 147.011 16.4882C146.529 16.3882 146.029 16.3382 145.511 16.3382C144.993 16.3382 144.487 16.3882 143.993 16.4882C143.499 16.5757 143.055 16.7381 142.66 16.9755C142.265 17.2004 141.944 17.5128 141.697 17.9127C141.463 18.3125 141.346 18.8249 141.346 19.4496C141.346 19.8745 141.432 20.2369 141.605 20.5368C141.778 20.8242 142.006 21.0678 142.29 21.2678C142.574 21.4552 142.895 21.6114 143.252 21.7363C143.623 21.8488 143.999 21.9488 144.382 22.0362C145.32 22.2362 146.048 22.4361 146.566 22.636C147.097 22.8359 147.362 23.1358 147.362 23.5357C147.362 23.7731 147.307 23.973 147.196 24.1355C147.085 24.2854 146.943 24.4104 146.77 24.5104C146.609 24.5978 146.424 24.6666 146.215 24.7165C146.017 24.754 145.826 24.7728 145.641 24.7728C145.381 24.7728 145.128 24.7415 144.882 24.679C144.647 24.6166 144.437 24.5229 144.252 24.3979C144.067 24.2604 143.913 24.0918 143.789 23.8918C143.678 23.6794 143.623 23.4295 143.623 23.1421Z" fill="#24262D"/>
<path d="M154.862 16.6006V13.6954H152.233V16.6006H150.641V18.3813H152.233V24.098C152.233 24.5853 152.313 24.9789 152.474 25.2788C152.634 25.5787 152.85 25.8099 153.122 25.9723C153.406 26.1348 153.727 26.241 154.084 26.291C154.455 26.3535 154.843 26.3847 155.251 26.3847C155.51 26.3847 155.775 26.3784 156.047 26.366C156.318 26.3535 156.565 26.3285 156.787 26.291V24.2292C156.664 24.2542 156.534 24.2729 156.399 24.2854C156.263 24.2979 156.121 24.3042 155.973 24.3042C155.528 24.3042 155.232 24.2292 155.084 24.0793C154.936 23.9293 154.862 23.6294 154.862 23.1796V18.3813H156.787V16.6006H154.862Z" fill="#24262D"/>
<path d="M164.48 20.4056H160.204C160.216 20.2181 160.253 20.0057 160.315 19.7683C160.389 19.5309 160.506 19.3059 160.667 19.0935C160.84 18.8811 161.062 18.7062 161.333 18.5687C161.617 18.4188 161.969 18.3438 162.389 18.3438C163.03 18.3438 163.505 18.5187 163.814 18.8686C164.135 19.2185 164.357 19.7308 164.48 20.4056ZM160.204 22.0925H167.109C167.159 21.3427 167.097 20.6242 166.924 19.937C166.751 19.2497 166.468 18.6374 166.073 18.1001C165.69 17.5628 165.196 17.138 164.592 16.8256C163.987 16.5007 163.277 16.3382 162.463 16.3382C161.734 16.3382 161.068 16.4694 160.463 16.7319C159.871 16.9943 159.359 17.3566 158.927 17.819C158.495 18.2688 158.161 18.8061 157.927 19.4309C157.692 20.0557 157.575 20.7304 157.575 21.4552C157.575 22.2049 157.686 22.8922 157.908 23.517C158.143 24.1417 158.47 24.679 158.89 25.1289C159.309 25.5787 159.821 25.9286 160.426 26.1785C161.031 26.4159 161.71 26.5346 162.463 26.5346C163.549 26.5346 164.474 26.2847 165.24 25.7849C166.005 25.2851 166.572 24.4541 166.943 23.292H164.629C164.542 23.5919 164.308 23.8793 163.925 24.1542C163.543 24.4166 163.086 24.5478 162.555 24.5478C161.815 24.5478 161.247 24.3542 160.852 23.9668C160.457 23.5794 160.241 22.9547 160.204 22.0925Z" fill="#24262D"/>
<path d="M168.668 16.6006V26.291H171.297V21.9238C171.297 21.4864 171.34 21.0803 171.427 20.7055C171.513 20.3306 171.655 20.0057 171.853 19.7308C172.062 19.4434 172.334 19.2185 172.667 19.056C173 18.8936 173.408 18.8124 173.889 18.8124C174.049 18.8124 174.216 18.8249 174.389 18.8499C174.562 18.8624 174.71 18.8811 174.833 18.9061V16.432C174.623 16.3695 174.432 16.3382 174.259 16.3382C173.926 16.3382 173.605 16.3882 173.297 16.4882C172.988 16.5882 172.698 16.7319 172.426 16.9193C172.155 17.0942 171.914 17.3129 171.704 17.5753C171.495 17.8252 171.328 18.1001 171.205 18.4H171.168V16.6006H168.668Z" fill="#24262D"/>
<path d="M174.275 23.4045V26.291H177.182V23.4045H174.275Z" fill="#24262D"/>
<path d="M186.111 21.4177C186.111 21.8176 186.074 22.2049 186 22.5798C185.926 22.9547 185.802 23.292 185.63 23.5919C185.457 23.8793 185.222 24.1105 184.926 24.2854C184.642 24.4604 184.284 24.5478 183.852 24.5478C183.445 24.5478 183.093 24.4604 182.797 24.2854C182.513 24.098 182.273 23.8606 182.075 23.5732C181.89 23.2733 181.754 22.9359 181.668 22.561C181.582 22.1862 181.538 21.8113 181.538 21.4364C181.538 21.0366 181.575 20.6555 181.649 20.2931C181.736 19.9182 181.865 19.5871 182.038 19.2997C182.223 19.0123 182.464 18.7811 182.76 18.6062C183.056 18.4313 183.421 18.3438 183.852 18.3438C184.284 18.3438 184.642 18.4313 184.926 18.6062C185.21 18.7811 185.438 19.0123 185.611 19.2997C185.796 19.5746 185.926 19.8995 186 20.2744C186.074 20.6367 186.111 21.0178 186.111 21.4177ZM186.148 25.0539V26.291H188.647V12.9082H186.018V17.7815H185.981C185.685 17.3067 185.278 16.9505 184.76 16.7131C184.254 16.4632 183.717 16.3382 183.149 16.3382C182.445 16.3382 181.828 16.4819 181.298 16.7693C180.767 17.0442 180.323 17.4129 179.965 17.8752C179.619 18.3375 179.354 18.8748 179.169 19.4871C178.996 20.0869 178.91 20.7117 178.91 21.3615C178.91 22.0362 178.996 22.686 179.169 23.3108C179.354 23.9356 179.619 24.4916 179.965 24.9789C180.323 25.4538 180.773 25.8349 181.316 26.1223C181.859 26.3972 182.489 26.5346 183.205 26.5346C183.834 26.5346 184.395 26.4222 184.889 26.1973C185.395 25.9598 185.802 25.5787 186.111 25.0539H186.148Z" fill="#24262D"/>
<path d="M197.077 20.4056H192.8C192.813 20.2181 192.85 20.0057 192.911 19.7683C192.985 19.5309 193.103 19.3059 193.263 19.0935C193.436 18.8811 193.658 18.7062 193.929 18.5687C194.213 18.4188 194.565 18.3438 194.985 18.3438C195.626 18.3438 196.102 18.5187 196.41 18.8686C196.731 19.2185 196.953 19.7308 197.077 20.4056ZM192.8 22.0925H199.705C199.755 21.3427 199.693 20.6242 199.52 19.937C199.348 19.2497 199.064 18.6374 198.669 18.1001C198.286 17.5628 197.792 17.138 197.188 16.8256C196.583 16.5007 195.873 16.3382 195.059 16.3382C194.331 16.3382 193.664 16.4694 193.059 16.7319C192.467 16.9943 191.955 17.3566 191.523 17.819C191.091 18.2688 190.758 18.8061 190.523 19.4309C190.289 20.0557 190.171 20.7304 190.171 21.4552C190.171 22.2049 190.282 22.8922 190.505 23.517C190.739 24.1417 191.066 24.679 191.486 25.1289C191.905 25.5787 192.418 25.9286 193.022 26.1785C193.627 26.4159 194.306 26.5346 195.059 26.5346C196.145 26.5346 197.07 26.2847 197.836 25.7849C198.601 25.2851 199.169 24.4541 199.539 23.292H197.225C197.138 23.5919 196.904 23.8793 196.521 24.1542C196.139 24.4166 195.682 24.5478 195.151 24.5478C194.411 24.5478 193.843 24.3542 193.448 23.9668C193.053 23.5794 192.837 22.9547 192.8 22.0925Z" fill="#24262D"/>
<path d="M47.7415 18.325V15.1949H50.4628C50.722 15.1949 50.9688 15.2199 51.2033 15.2699C51.4502 15.3074 51.6662 15.3823 51.8513 15.4948C52.0364 15.6073 52.1845 15.7634 52.2956 15.9634C52.4067 16.1633 52.4622 16.4195 52.4622 16.7319C52.4622 17.2942 52.2956 17.7003 51.9624 17.9502C51.6291 18.2001 51.2033 18.325 50.685 18.325H47.7415ZM44.835 12.9082V26.291H51.2404C51.8328 26.291 52.4067 26.216 52.962 26.0661C53.5298 25.9161 54.0296 25.6849 54.4616 25.3726C54.9059 25.0602 55.2576 24.6603 55.5168 24.173C55.776 23.6732 55.9056 23.0859 55.9056 22.4111C55.9056 21.5739 55.7019 20.8616 55.2946 20.2744C54.8997 19.6746 54.295 19.256 53.4804 19.0185C54.0728 18.7311 54.5171 18.3625 54.8133 17.9127C55.1219 17.4628 55.2761 16.9005 55.2761 16.2258C55.2761 15.601 55.1712 15.0762 54.9614 14.6513C54.7639 14.2265 54.4801 13.8891 54.1098 13.6392C53.7396 13.3768 53.2953 13.1894 52.7769 13.0769C52.2586 12.9644 51.6847 12.9082 51.0552 12.9082H44.835ZM47.7415 24.0043V20.3306H50.9071C51.5366 20.3306 52.0426 20.4805 52.4252 20.7804C52.8078 21.0678 52.9991 21.5552 52.9991 22.2424C52.9991 22.5923 52.9374 22.8797 52.8139 23.1046C52.7029 23.3295 52.5486 23.5107 52.3511 23.6482C52.1537 23.7731 51.9253 23.8668 51.6662 23.9293C51.407 23.9793 51.1355 24.0043 50.8516 24.0043H47.7415Z" stroke="#24262D" stroke-width="0.373423"/>
<path d="M58.925 12.9082V15.1012H61.4242V12.9082H58.925ZM62.7386 12.9082V15.1012H65.2379V12.9082H62.7386ZM66.5708 26.291V16.6006H63.942V21.6801C63.942 22.6673 63.7815 23.3795 63.4606 23.8169C63.1397 24.2417 62.6214 24.4541 61.9056 24.4541C61.2761 24.4541 60.838 24.2604 60.5912 23.8731C60.3443 23.4732 60.2209 22.8734 60.2209 22.0737V16.6006H57.5921V22.561C57.5921 23.1608 57.6415 23.7106 57.7402 24.2105C57.8513 24.6978 58.0364 25.1164 58.2956 25.4663C58.5548 25.8037 58.9065 26.0661 59.3508 26.2535C59.8075 26.4409 60.3875 26.5346 61.091 26.5346C61.6464 26.5346 62.1894 26.4097 62.7201 26.1598C63.2508 25.9099 63.6828 25.5038 64.016 24.9415H64.0716V26.291H66.5708Z" stroke="#24262D" stroke-width="0.373423"/>
<path d="M75.0824 20.0119H77.6557C77.6187 19.3872 77.4706 18.8499 77.2114 18.4C76.9522 17.9377 76.6128 17.5566 76.1932 17.2567C75.7859 16.9443 75.3169 16.7131 74.7862 16.5632C74.2679 16.4132 73.7248 16.3382 73.1571 16.3382C72.3796 16.3382 71.6884 16.4694 71.0837 16.7319C70.4789 16.9943 69.9667 17.3629 69.5471 17.8377C69.1275 18.3 68.8066 18.8561 68.5845 19.5059C68.3747 20.1431 68.2697 20.8367 68.2697 21.5864C68.2697 22.3111 68.387 22.9796 68.6215 23.5919C68.856 24.1917 69.183 24.7103 69.6027 25.1476C70.0223 25.585 70.5283 25.9286 71.1207 26.1785C71.7255 26.4159 72.3857 26.5346 73.1016 26.5346C74.3728 26.5346 75.4157 26.1973 76.2302 25.5225C77.0448 24.8477 77.5384 23.8668 77.7112 22.5798H75.175C75.0886 23.1796 74.8726 23.6607 74.527 24.023C74.1938 24.3729 73.7125 24.5478 73.0831 24.5478C72.6758 24.5478 72.3302 24.4541 72.0463 24.2667C71.7625 24.0793 71.5342 23.8418 71.3614 23.5544C71.2009 23.2546 71.0837 22.9234 71.0096 22.561C70.9356 22.1987 70.8986 21.8425 70.8986 21.4927C70.8986 21.1303 70.9356 20.7679 71.0096 20.4056C71.0837 20.0307 71.2071 19.6933 71.3799 19.3934C71.565 19.081 71.7995 18.8311 72.0834 18.6437C72.3672 18.4437 72.719 18.3438 73.1386 18.3438C74.2617 18.3438 74.9096 18.8998 75.0824 20.0119Z" stroke="#24262D" stroke-width="0.373423"/>
<path d="M79.1963 12.9082V26.291H81.8251V21.2115C81.8251 20.2244 81.9855 19.5184 82.3064 19.0935C82.6273 18.6562 83.1457 18.4375 83.8615 18.4375C84.4909 18.4375 84.9291 18.6374 85.1759 19.0373C85.4227 19.4247 85.5462 20.0182 85.5462 20.8179V26.291H88.175V20.3306C88.175 19.7308 88.1194 19.1872 88.0084 18.6999C87.9096 18.2001 87.7307 17.7815 87.4715 17.4441C87.2123 17.0942 86.8544 16.8256 86.3977 16.6381C85.9534 16.4382 85.3795 16.3382 84.6761 16.3382C84.1824 16.3382 83.6764 16.4694 83.158 16.7319C82.6397 16.9818 82.2139 17.3879 81.8806 17.9502H81.8251V12.9082H79.1963Z" stroke="#24262D" stroke-width="0.373423"/>
<path d="M96.6126 20.4056H92.3361C92.3485 20.2181 92.3855 20.0057 92.4472 19.7683C92.5213 19.5309 92.6385 19.3059 92.799 19.0935C92.9717 18.8811 93.1939 18.7062 93.4654 18.5687C93.7493 18.4188 94.101 18.3438 94.5206 18.3438C95.1624 18.3438 95.6376 18.5187 95.9461 18.8686C96.267 19.2185 96.4892 19.7308 96.6126 20.4056ZM92.3361 22.0925H99.2414C99.2908 21.3427 99.229 20.6242 99.0563 19.937C98.8835 19.2497 98.5996 18.6374 98.2047 18.1001C97.8221 17.5628 97.3284 17.138 96.7237 16.8256C96.1189 16.5007 95.4092 16.3382 94.5947 16.3382C93.8665 16.3382 93.2001 16.4694 92.5953 16.7319C92.0029 16.9943 91.4907 17.3566 91.0588 17.819C90.6268 18.2688 90.2936 18.8061 90.0591 19.4309C89.8246 20.0557 89.7073 20.7304 89.7073 21.4552C89.7073 22.2049 89.8184 22.8922 90.0406 23.517C90.2751 24.1417 90.6021 24.679 91.0217 25.1289C91.4414 25.5787 91.9535 25.9286 92.5583 26.1785C93.163 26.4159 93.8418 26.5346 94.5947 26.5346C95.6808 26.5346 96.6064 26.2847 97.3716 25.7849C98.1368 25.2851 98.7045 24.4541 99.0748 23.292H96.7607C96.6743 23.5919 96.4398 23.8793 96.0572 24.1542C95.6746 24.4166 95.2179 24.5478 94.6873 24.5478C93.9467 24.5478 93.379 24.3542 92.9841 23.9668C92.5891 23.5794 92.3732 22.9547 92.3361 22.0925Z" stroke="#24262D" stroke-width="0.373423"/>
<path d="M100.8 16.6006V26.291H103.429V21.9238C103.429 21.4864 103.473 21.0803 103.559 20.7055C103.645 20.3306 103.787 20.0057 103.985 19.7308C104.194 19.4434 104.466 19.2185 104.799 19.056C105.132 18.8936 105.54 18.8124 106.021 18.8124C106.182 18.8124 106.348 18.8249 106.521 18.8499C106.694 18.8624 106.842 18.8811 106.965 18.9061V16.432C106.755 16.3695 106.564 16.3382 106.391 16.3382C106.058 16.3382 105.737 16.3882 105.429 16.4882C105.12 16.5882 104.83 16.7319 104.559 16.9193C104.287 17.0942 104.046 17.3129 103.837 17.5753C103.627 17.8252 103.46 18.1001 103.337 18.4H103.3V16.6006H100.8Z" stroke="#24262D" stroke-width="0.373423"/>
<path d="M107.996 16.6006V26.291H110.625V21.9238C110.625 21.4864 110.668 21.0803 110.754 20.7055C110.841 20.3306 110.983 20.0057 111.18 19.7308C111.39 19.4434 111.661 19.2185 111.995 19.056C112.328 18.8936 112.735 18.8124 113.216 18.8124C113.377 18.8124 113.544 18.8249 113.716 18.8499C113.889 18.8624 114.037 18.8811 114.161 18.9061V16.432C113.951 16.3695 113.759 16.3382 113.587 16.3382C113.253 16.3382 112.933 16.3882 112.624 16.4882C112.316 16.5882 112.025 16.7319 111.754 16.9193C111.482 17.0942 111.242 17.3129 111.032 17.5753C110.822 17.8252 110.656 18.1001 110.532 18.4H110.495V16.6006H107.996Z" stroke="#24262D" stroke-width="0.373423"/>
<path d="M121.308 20.4056H117.032C117.044 20.2181 117.081 20.0057 117.143 19.7683C117.217 19.5309 117.334 19.3059 117.495 19.0935C117.667 18.8811 117.89 18.7062 118.161 18.5687C118.445 18.4188 118.797 18.3438 119.216 18.3438C119.858 18.3438 120.333 18.5187 120.642 18.8686C120.963 19.2185 121.185 19.7308 121.308 20.4056ZM117.032 22.0925H123.937C123.986 21.3427 123.925 20.6242 123.752 19.937C123.579 19.2497 123.295 18.6374 122.9 18.1001C122.518 17.5628 122.024 17.138 121.419 16.8256C120.815 16.5007 120.105 16.3382 119.29 16.3382C118.562 16.3382 117.896 16.4694 117.291 16.7319C116.699 16.9943 116.186 17.3566 115.754 17.819C115.322 18.2688 114.989 18.8061 114.755 19.4309C114.52 20.0557 114.403 20.7304 114.403 21.4552C114.403 22.2049 114.514 22.8922 114.736 23.517C114.971 24.1417 115.298 24.679 115.717 25.1289C116.137 25.5787 116.649 25.9286 117.254 26.1785C117.859 26.4159 118.538 26.5346 119.29 26.5346C120.376 26.5346 121.302 26.2847 122.067 25.7849C122.832 25.2851 123.4 24.4541 123.77 23.292H121.456C121.37 23.5919 121.135 23.8793 120.753 24.1542C120.37 24.4166 119.914 24.5478 119.383 24.5478C118.642 24.5478 118.075 24.3542 117.68 23.9668C117.285 23.5794 117.069 22.9547 117.032 22.0925Z" stroke="#24262D" stroke-width="0.373423"/>
<path d="M129.958 24.0043C129.55 24.0043 129.211 23.9168 128.94 23.7419C128.668 23.5669 128.446 23.342 128.273 23.0671C128.113 22.7922 127.995 22.4861 127.921 22.1487C127.86 21.7988 127.829 21.4489 127.829 21.0991C127.829 20.7367 127.866 20.3931 127.94 20.0682C128.026 19.7308 128.156 19.4371 128.329 19.1872C128.514 18.9248 128.736 18.7187 128.995 18.5687C129.267 18.4188 129.587 18.3438 129.958 18.3438C130.39 18.3438 130.748 18.425 131.031 18.5874C131.315 18.7499 131.544 18.9686 131.716 19.2435C131.889 19.5184 132.013 19.837 132.087 20.1994C132.161 20.5493 132.198 20.9241 132.198 21.324C132.198 21.6739 132.148 22.0112 132.05 22.3361C131.963 22.6485 131.828 22.9297 131.642 23.1796C131.457 23.4295 131.223 23.6294 130.939 23.7794C130.655 23.9293 130.328 24.0043 129.958 24.0043ZM134.697 25.6724V16.6006H132.198V17.8939H132.161C131.84 17.3316 131.439 16.9318 130.957 16.6944C130.488 16.457 129.939 16.3382 129.31 16.3382C128.643 16.3382 128.051 16.4694 127.533 16.7319C127.027 16.9943 126.601 17.3504 126.255 17.8002C125.91 18.2376 125.644 18.7499 125.459 19.3372C125.286 19.912 125.2 20.5118 125.2 21.1365C125.2 21.7988 125.274 22.4298 125.422 23.0296C125.583 23.6169 125.829 24.1355 126.163 24.5853C126.496 25.0227 126.922 25.3726 127.44 25.635C127.958 25.8849 128.575 26.0098 129.291 26.0098C129.871 26.0098 130.421 25.8911 130.939 25.6537C131.47 25.4038 131.877 25.0227 132.161 24.5104H132.198V25.7849C132.21 26.4722 132.044 27.0407 131.698 27.4906C131.365 27.9404 130.828 28.1653 130.087 28.1653C129.618 28.1653 129.205 28.0654 128.847 27.8654C128.489 27.678 128.248 27.3344 128.125 26.8345H125.515C125.552 27.3843 125.7 27.8529 125.959 28.2403C126.231 28.6401 126.564 28.965 126.959 29.2149C127.366 29.4649 127.81 29.646 128.292 29.7585C128.785 29.8835 129.267 29.9459 129.736 29.9459C130.834 29.9459 131.71 29.796 132.364 29.4961C133.019 29.1962 133.518 28.8276 133.864 28.3902C134.209 27.9654 134.432 27.5031 134.53 27.0032C134.641 26.5034 134.697 26.0598 134.697 25.6724Z" stroke="#24262D" stroke-width="0.373423"/>
<path d="M139.516 15.1012V12.9082H136.888V15.1012H139.516ZM136.888 16.6006V26.291H139.516V16.6006H136.888Z" stroke="#24262D" stroke-width="0.373423"/>
<path d="M143.623 23.1421H141.124C141.148 23.7919 141.29 24.3354 141.549 24.7728C141.821 25.1976 142.16 25.5412 142.568 25.8036C142.987 26.0661 143.462 26.2535 143.993 26.366C144.524 26.4784 145.067 26.5346 145.622 26.5346C146.165 26.5346 146.696 26.4784 147.214 26.366C147.745 26.266 148.214 26.0848 148.621 25.8224C149.028 25.56 149.356 25.2164 149.602 24.7915C149.862 24.3542 149.991 23.8169 149.991 23.1796C149.991 22.7297 149.905 22.3549 149.732 22.055C149.559 21.7426 149.331 21.4864 149.047 21.2865C148.763 21.0741 148.436 20.9054 148.066 20.7804C147.708 20.6555 147.338 20.5493 146.955 20.4618C146.585 20.3743 146.221 20.2931 145.863 20.2181C145.505 20.1431 145.184 20.0619 144.9 19.9745C144.629 19.8745 144.406 19.7495 144.234 19.5996C144.061 19.4496 143.974 19.256 143.974 19.0185C143.974 18.8186 144.024 18.6624 144.123 18.55C144.221 18.425 144.339 18.3313 144.474 18.2688C144.622 18.2063 144.783 18.1688 144.956 18.1564C145.128 18.1314 145.289 18.1189 145.437 18.1189C145.906 18.1189 146.313 18.2126 146.659 18.4C147.004 18.575 147.196 18.9186 147.233 19.4309H149.732C149.683 18.8311 149.528 18.3375 149.269 17.9502C149.022 17.5503 148.708 17.2317 148.325 16.9943C147.942 16.7568 147.504 16.5882 147.011 16.4882C146.529 16.3882 146.029 16.3382 145.511 16.3382C144.993 16.3382 144.487 16.3882 143.993 16.4882C143.499 16.5757 143.055 16.7381 142.66 16.9755C142.265 17.2004 141.944 17.5128 141.697 17.9127C141.463 18.3125 141.346 18.8249 141.346 19.4496C141.346 19.8745 141.432 20.2369 141.605 20.5368C141.778 20.8242 142.006 21.0678 142.29 21.2678C142.574 21.4552 142.895 21.6114 143.252 21.7363C143.623 21.8488 143.999 21.9488 144.382 22.0362C145.32 22.2362 146.048 22.4361 146.566 22.636C147.097 22.8359 147.362 23.1358 147.362 23.5357C147.362 23.7731 147.307 23.973 147.196 24.1355C147.085 24.2854 146.943 24.4104 146.77 24.5104C146.609 24.5978 146.424 24.6666 146.215 24.7165C146.017 24.754 145.826 24.7728 145.641 24.7728C145.381 24.7728 145.128 24.7415 144.882 24.679C144.647 24.6166 144.437 24.5229 144.252 24.3979C144.067 24.2604 143.913 24.0918 143.789 23.8918C143.678 23.6794 143.623 23.4295 143.623 23.1421Z" stroke="#24262D" stroke-width="0.373423"/>
<path d="M154.862 16.6006V13.6954H152.233V16.6006H150.641V18.3813H152.233V24.098C152.233 24.5853 152.313 24.9789 152.474 25.2788C152.634 25.5787 152.85 25.8099 153.122 25.9723C153.406 26.1348 153.727 26.241 154.084 26.291C154.455 26.3535 154.843 26.3847 155.251 26.3847C155.51 26.3847 155.775 26.3784 156.047 26.366C156.318 26.3535 156.565 26.3285 156.787 26.291V24.2292C156.664 24.2542 156.534 24.2729 156.399 24.2854C156.263 24.2979 156.121 24.3042 155.973 24.3042C155.528 24.3042 155.232 24.2292 155.084 24.0793C154.936 23.9293 154.862 23.6294 154.862 23.1796V18.3813H156.787V16.6006H154.862Z" stroke="#24262D" stroke-width="0.373423"/>
<path d="M164.48 20.4056H160.204C160.216 20.2181 160.253 20.0057 160.315 19.7683C160.389 19.5309 160.506 19.3059 160.667 19.0935C160.84 18.8811 161.062 18.7062 161.333 18.5687C161.617 18.4188 161.969 18.3438 162.389 18.3438C163.03 18.3438 163.505 18.5187 163.814 18.8686C164.135 19.2185 164.357 19.7308 164.48 20.4056ZM160.204 22.0925H167.109C167.159 21.3427 167.097 20.6242 166.924 19.937C166.751 19.2497 166.468 18.6374 166.073 18.1001C165.69 17.5628 165.196 17.138 164.592 16.8256C163.987 16.5007 163.277 16.3382 162.463 16.3382C161.734 16.3382 161.068 16.4694 160.463 16.7319C159.871 16.9943 159.359 17.3566 158.927 17.819C158.495 18.2688 158.161 18.8061 157.927 19.4309C157.692 20.0557 157.575 20.7304 157.575 21.4552C157.575 22.2049 157.686 22.8922 157.908 23.517C158.143 24.1417 158.47 24.679 158.89 25.1289C159.309 25.5787 159.821 25.9286 160.426 26.1785C161.031 26.4159 161.71 26.5346 162.463 26.5346C163.549 26.5346 164.474 26.2847 165.24 25.7849C166.005 25.2851 166.572 24.4541 166.943 23.292H164.629C164.542 23.5919 164.308 23.8793 163.925 24.1542C163.543 24.4166 163.086 24.5478 162.555 24.5478C161.815 24.5478 161.247 24.3542 160.852 23.9668C160.457 23.5794 160.241 22.9547 160.204 22.0925Z" stroke="#24262D" stroke-width="0.373423"/>
<path d="M168.668 16.6006V26.291H171.297V21.9238C171.297 21.4864 171.34 21.0803 171.427 20.7055C171.513 20.3306 171.655 20.0057 171.853 19.7308C172.062 19.4434 172.334 19.2185 172.667 19.056C173 18.8936 173.408 18.8124 173.889 18.8124C174.049 18.8124 174.216 18.8249 174.389 18.8499C174.562 18.8624 174.71 18.8811 174.833 18.9061V16.432C174.623 16.3695 174.432 16.3382 174.259 16.3382C173.926 16.3382 173.605 16.3882 173.297 16.4882C172.988 16.5882 172.698 16.7319 172.426 16.9193C172.155 17.0942 171.914 17.3129 171.704 17.5753C171.495 17.8252 171.328 18.1001 171.205 18.4H171.168V16.6006H168.668Z" stroke="#24262D" stroke-width="0.373423"/>
<path d="M174.275 23.4045V26.291H177.182V23.4045H174.275Z" stroke="#24262D" stroke-width="0.373423"/>
<path d="M186.111 21.4177C186.111 21.8176 186.074 22.2049 186 22.5798C185.926 22.9547 185.802 23.292 185.63 23.5919C185.457 23.8793 185.222 24.1105 184.926 24.2854C184.642 24.4604 184.284 24.5478 183.852 24.5478C183.445 24.5478 183.093 24.4604 182.797 24.2854C182.513 24.098 182.273 23.8606 182.075 23.5732C181.89 23.2733 181.754 22.9359 181.668 22.561C181.582 22.1862 181.538 21.8113 181.538 21.4364C181.538 21.0366 181.575 20.6555 181.649 20.2931C181.736 19.9182 181.865 19.5871 182.038 19.2997C182.223 19.0123 182.464 18.7811 182.76 18.6062C183.056 18.4313 183.421 18.3438 183.852 18.3438C184.284 18.3438 184.642 18.4313 184.926 18.6062C185.21 18.7811 185.438 19.0123 185.611 19.2997C185.796 19.5746 185.926 19.8995 186 20.2744C186.074 20.6367 186.111 21.0178 186.111 21.4177ZM186.148 25.0539V26.291H188.647V12.9082H186.018V17.7815H185.981C185.685 17.3067 185.278 16.9505 184.76 16.7131C184.254 16.4632 183.717 16.3382 183.149 16.3382C182.445 16.3382 181.828 16.4819 181.298 16.7693C180.767 17.0442 180.323 17.4129 179.965 17.8752C179.619 18.3375 179.354 18.8748 179.169 19.4871C178.996 20.0869 178.91 20.7117 178.91 21.3615C178.91 22.0362 178.996 22.686 179.169 23.3108C179.354 23.9356 179.619 24.4916 179.965 24.9789C180.323 25.4538 180.773 25.8349 181.316 26.1223C181.859 26.3972 182.489 26.5346 183.205 26.5346C183.834 26.5346 184.395 26.4222 184.889 26.1973C185.395 25.9598 185.802 25.5787 186.111 25.0539H186.148Z" stroke="#24262D" stroke-width="0.373423"/>
<path d="M197.077 20.4056H192.8C192.813 20.2181 192.85 20.0057 192.911 19.7683C192.985 19.5309 193.103 19.3059 193.263 19.0935C193.436 18.8811 193.658 18.7062 193.929 18.5687C194.213 18.4188 194.565 18.3438 194.985 18.3438C195.626 18.3438 196.102 18.5187 196.41 18.8686C196.731 19.2185 196.953 19.7308 197.077 20.4056ZM192.8 22.0925H199.705C199.755 21.3427 199.693 20.6242 199.52 19.937C199.348 19.2497 199.064 18.6374 198.669 18.1001C198.286 17.5628 197.792 17.138 197.188 16.8256C196.583 16.5007 195.873 16.3382 195.059 16.3382C194.331 16.3382 193.664 16.4694 193.059 16.7319C192.467 16.9943 191.955 17.3566 191.523 17.819C191.091 18.2688 190.758 18.8061 190.523 19.4309C190.289 20.0557 190.171 20.7304 190.171 21.4552C190.171 22.2049 190.282 22.8922 190.505 23.517C190.739 24.1417 191.066 24.679 191.486 25.1289C191.905 25.5787 192.418 25.9286 193.022 26.1785C193.627 26.4159 194.306 26.5346 195.059 26.5346C196.145 26.5346 197.07 26.2847 197.836 25.7849C198.601 25.2851 199.169 24.4541 199.539 23.292H197.225C197.138 23.5919 196.904 23.8793 196.521 24.1542C196.139 24.4166 195.682 24.5478 195.151 24.5478C194.411 24.5478 193.843 24.3542 193.448 23.9668C193.053 23.5794 192.837 22.9547 192.8 22.0925Z" stroke="#24262D" stroke-width="0.373423"/>
<path fill-rule="evenodd" clip-rule="evenodd" d="M26.3896 7.48492C26.3896 7.19617 26.103 7.00035 25.843 7.1114L8.95582 13.8957V33.2862L5.91016 34.814V11.8147L24.6716 4.22999C26.9378 3.26222 29.4353 4.96872 29.4353 7.48492H26.3896Z" fill="#24262D"/>
<path fill-rule="evenodd" clip-rule="evenodd" d="M20.4795 3.52984C20.4795 3.2411 20.1929 3.04527 19.9328 3.15632L3.04566 9.94066V28.5293L0 30.0572V7.85964L18.7614 0.27491C21.0276 -0.69286 23.5252 1.01364 23.5252 3.52984H20.4795Z" fill="#24262D"/>
<path fill-rule="evenodd" clip-rule="evenodd" d="M34.0896 29.4926C33.2037 31.2918 31.775 32.137 27.2896 33.9986L12.2109 40L12.3311 15.8266L16.9883 14.0336V22.4687L19.6134 19.4819L22.2386 20.3353V12.0123L27.7647 9.88477C28.0562 9.74299 28.3341 9.6284 28.5991 9.53829C32.9602 8.05569 34.4601 15.6999 31.1664 18.8572C30.6743 19.329 30.1439 19.7469 29.5898 20.093C29.8889 19.956 30.1862 19.8784 30.4784 19.85C34.4808 19.4605 35.8306 25.9564 34.0896 29.4926Z" fill="#24262D"/>
</svg>
